<svg width="81" height="80" viewBox="0 0 81 80" fill="none" xmlns="http://www.w3.org/2000/svg">
<path d="M69.7 13.6H11.3C10.9817 13.6 10.6765 13.7264 10.4514 13.9514C10.2264 14.1765 10.1 14.4817 10.1 14.8V53.2C10.1 53.5182 10.2264 53.8235 10.4514 54.0485C10.6765 54.2735 10.9817 54.4 11.3 54.4H28.028L15.228 67.2C15.0033 67.425 14.877 67.73 14.877 68.048C14.877 68.366 15.0033 68.671 15.228 68.896L20.404 74.072C20.629 74.2967 20.934 74.4229 21.252 74.4229C21.57 74.4229 21.875 74.2967 22.1 74.072L41.772 54.4H69.7C70.0182 54.4 70.3235 54.2735 70.5485 54.0485C70.7735 53.8235 70.9 53.5182 70.9 53.2V14.8C70.9 14.4817 70.7735 14.1765 70.5485 13.9514C70.3235 13.7264 70.0182 13.6 69.7 13.6ZM21.3 71.504L17.796 68L45.636 40.16L51.508 37.76L49.108 43.632L21.3 71.504ZM68.5 52H44.172L50.988 45.184C51.1013 45.0722 51.191 44.9389 51.252 44.792L54.812 36.056C54.9189 35.832 54.9538 35.5805 54.9119 35.3359C54.8699 35.0913 54.7531 34.8658 54.5777 34.6903C54.4022 34.5148 54.1766 34.3981 53.9321 34.3561C53.6875 34.3141 53.4359 34.349 53.212 34.456L44.5 38.048C44.3532 38.1093 44.22 38.199 44.108 38.312L30.428 52H12.5V16H68.5V52Z" fill="url(#paint0_linear_11_368)"/>
<path d="M59.7 32.0001C60.8076 32.0001 61.8903 31.6716 62.8112 31.0563C63.7321 30.4409 64.4498 29.5663 64.8737 28.5431C65.2976 27.5198 65.4084 26.3938 65.1924 25.3075C64.9763 24.2213 64.4429 23.2234 63.6598 22.4403C62.8766 21.6571 61.8788 21.1237 60.7925 20.9077C59.7062 20.6916 58.5802 20.8025 57.5569 21.2263C56.5337 21.6502 55.6591 22.3679 55.0437 23.2889C54.4284 24.2098 54.1 25.2925 54.1 26.4001C54.1 27.8853 54.69 29.3096 55.7402 30.3599C56.7904 31.4101 58.2148 32.0001 59.7 32.0001ZM59.7 23.2001C60.3329 23.2001 60.9516 23.3877 61.4778 23.7393C62.004 24.091 62.4142 24.5907 62.6564 25.1755C62.8986 25.7602 62.962 26.4036 62.8385 27.0243C62.715 27.6451 62.4102 28.2153 61.9627 28.6628C61.5152 29.1103 60.945 29.4151 60.3243 29.5386C59.7035 29.662 59.0601 29.5987 58.4754 29.3565C57.8907 29.1143 57.3909 28.7041 57.0393 28.1779C56.6876 27.6516 56.5 27.033 56.5 26.4001C56.5 25.5514 56.8371 24.7374 57.4372 24.1373C58.0373 23.5372 58.8513 23.2001 59.7 23.2001Z" fill="url(#paint1_linear_11_368)"/>
<path d="M17.3 47.2H27.788C28.1062 47.2 28.4115 47.0735 28.6365 46.8485C28.8616 46.6234 28.988 46.3182 28.988 46C28.988 45.6817 28.8616 45.3765 28.6365 45.1514C28.4115 44.9264 28.1062 44.8 27.788 44.8H19.516L33.516 23.392L40.292 33.752C40.3754 33.8896 40.4858 34.0091 40.6163 34.1033C40.7469 34.1975 40.8951 34.2644 41.0521 34.3001C41.2091 34.3358 41.3717 34.3395 41.5302 34.3111C41.6887 34.2826 41.8398 34.2226 41.9746 34.1345C42.1094 34.0465 42.225 33.9322 42.3147 33.7985C42.4044 33.6648 42.4663 33.5144 42.4967 33.3563C42.527 33.1981 42.5253 33.0355 42.4915 32.8781C42.4577 32.7207 42.3926 32.5717 42.3 32.44L34.524 20.544C34.408 20.3868 34.2567 20.2591 34.0823 20.1711C33.9079 20.0831 33.7153 20.0372 33.52 20.0372C33.3247 20.0372 33.1321 20.0831 32.9577 20.1711C32.7833 20.2591 32.632 20.3868 32.516 20.544L16.292 45.344C16.1736 45.5252 16.1065 45.7352 16.0978 45.9515C16.089 46.1678 16.139 46.3824 16.2423 46.5727C16.3456 46.7629 16.4985 46.9217 16.6847 47.0321C16.8709 47.1425 17.0835 47.2005 17.3 47.2Z" fill="url(#paint2_linear_11_368)"/>
<defs>
<linearGradient id="paint0_linear_11_368" x1="10.1" y1="44.0114" x2="70.9" y2="44.0114" gradientUnits="userSpaceOnUse">
<stop stop-color="#F093FB"/>
<stop offset="1" stop-color="#F5576C"/>
</linearGradient>
<linearGradient id="paint1_linear_11_368" x1="54.1" y1="26.4001" x2="65.3" y2="26.4001" gradientUnits="userSpaceOnUse">
<stop stop-color="#F093FB"/>
<stop offset="1" stop-color="#F5576C"/>
</linearGradient>
<linearGradient id="paint2_linear_11_368" x1="16.0968" y1="33.6186" x2="42.5182" y2="33.6186" gradientUnits="userSpaceOnUse">
<stop stop-color="#F093FB"/>
<stop offset="1" stop-color="#F5576C"/>
</linearGradient>
</defs>
</svg>
