<svg width="80" height="80" viewBox="0 0 80 80" fill="none" xmlns="http://www.w3.org/2000/svg">
<path d="M67.112 12.088C66.5199 11.4973 65.8077 11.0408 65.0237 10.7495C64.2396 10.4583 63.4021 10.3391 62.568 10.4C52.8287 11.1291 43.6793 15.3473 36.8 22.28L35.896 23.2H24.104C23.9445 23.2001 23.7867 23.232 23.6398 23.2939C23.4928 23.3557 23.3596 23.4462 23.248 23.56L10.744 36.36C10.5786 36.5287 10.4667 36.7425 10.4223 36.9745C10.3779 37.2065 10.403 37.4465 10.4944 37.6643C10.5858 37.8822 10.7395 38.0682 10.9362 38.199C11.1328 38.3299 11.3638 38.3998 11.6 38.4H23.104L26.184 41.48C21.511 41.6515 17.0804 43.6035 13.8 46.936C3.99999 56.856 11.72 68.176 11.8 68.288C11.9462 68.4975 12.1554 68.6548 12.3973 68.7372C12.6391 68.8195 12.9009 68.8225 13.1445 68.7457C13.3882 68.669 13.601 68.5165 13.752 68.3104C13.903 68.1043 13.9842 67.8555 13.984 67.6C13.984 63.752 17.592 60.104 21.4 60.104C23.2283 60.1146 24.9777 60.8499 26.2645 62.1487C27.5513 63.4475 28.2704 65.2037 28.264 67.032C28.2677 67.2489 28.3302 67.4608 28.4447 67.645C28.5593 67.8292 28.7216 67.979 28.9145 68.0783C29.1074 68.1776 29.3235 68.2228 29.5401 68.209C29.7566 68.1952 29.9653 68.123 30.144 68C32.4502 66.2103 34.3196 63.92 35.6112 61.3021C36.9028 58.6842 37.5829 55.8071 37.6 52.888L40.8 56.088V67.6C40.8002 67.8372 40.8707 68.069 41.0026 68.2661C41.1344 68.4633 41.3218 68.6169 41.5409 68.7077C41.7601 68.7984 42.0012 68.8222 42.2338 68.776C42.4664 68.7297 42.6802 68.6156 42.848 68.448L55.648 55.648C55.8692 55.4271 55.9955 55.1286 56 54.816V43.304L56.92 42.4C63.8527 35.5207 68.0709 26.3714 68.8 16.632C68.8609 15.7979 68.7417 14.9604 68.4505 14.1763C68.1592 13.3923 67.7027 12.6801 67.112 12.088ZM24.608 25.6H33.496L23.096 36H14.448L24.608 25.6ZM30.352 64.664C29.836 62.6784 28.6771 60.9194 27.0562 59.6618C25.4353 58.4041 23.4436 57.7185 21.392 57.712C17.456 57.712 13.792 60.48 12.288 64.112C10.888 60.616 9.75999 54.432 15.488 48.648C17.1876 46.9196 19.2596 45.6024 21.5459 44.7968C23.8322 43.9913 26.2723 43.7187 28.68 44L35.08 50.4C35.4039 52.9796 35.1475 55.599 34.3295 58.0668C33.5115 60.5346 32.1526 62.7886 30.352 64.664ZM53.6 54.32L43.2 64.72V56.104L53.6 45.704V54.32ZM55.2 40.72L53.952 41.968L53.912 42.008L42 53.904L25.296 37.2L37.224 25.272L37.264 25.232L38.512 24C44.9758 17.4734 53.5767 13.4968 62.736 12.8C63.2282 12.7559 63.7241 12.8204 64.1887 12.9889C64.6533 13.1574 65.0752 13.4259 65.4247 13.7753C65.7741 14.1248 66.0426 14.5467 66.2111 15.0113C66.3797 15.4759 66.4441 15.9718 66.4 16.464C65.7033 25.6233 61.7267 34.2242 55.2 40.688V40.72Z" fill="url(#paint0_linear_11_289)"/>
<path d="M50.8 21.6C49.0418 21.6009 47.3382 22.2115 45.9796 23.3276C44.6211 24.4437 43.6915 25.9963 43.3493 27.7209C43.0071 29.4456 43.2735 31.2355 44.1031 32.7857C44.9326 34.336 46.274 35.5507 47.8987 36.2228C49.5234 36.8949 51.3309 36.9829 53.0133 36.4718C54.6956 35.9607 56.1487 34.8821 57.1249 33.4198C58.1011 31.9574 58.5401 30.2019 58.3671 28.4521C58.1941 26.7024 57.4197 25.0668 56.176 23.824C55.4715 23.1163 54.6336 22.5553 53.7108 22.1735C52.788 21.7918 51.7986 21.5969 50.8 21.6ZM54.48 32.88C53.6301 33.7313 52.5113 34.2617 51.3142 34.3806C50.1171 34.4996 48.9158 34.1998 47.915 33.5324C46.9142 32.865 46.1757 31.8712 45.8254 30.7203C45.4751 29.5695 45.5346 28.3328 45.9939 27.2209C46.4531 26.1091 47.2836 25.1908 48.344 24.6227C49.4043 24.0545 50.6288 23.8715 51.809 24.1049C52.9891 24.3383 54.0517 24.9737 54.816 25.9027C55.5802 26.8318 55.9986 27.997 56 29.2C56.0026 29.8834 55.8695 30.5606 55.6086 31.1923C55.3477 31.8239 54.9641 32.3976 54.48 32.88Z" fill="url(#paint1_linear_11_289)"/>
<defs>
<linearGradient id="paint0_linear_11_289" x1="8.83575" y1="39.5928" x2="68.8155" y2="39.5928" gradientUnits="userSpaceOnUse">
<stop stop-color="#F093FB"/>
<stop offset="1" stop-color="#F5576C"/>
</linearGradient>
<linearGradient id="paint1_linear_11_289" x1="43.204" y1="29.2" x2="58.404" y2="29.2" gradientUnits="userSpaceOnUse">
<stop stop-color="#F093FB"/>
<stop offset="1" stop-color="#F5576C"/>
</linearGradient>
</defs>
</svg>
