<svg width="80" height="80" viewBox="0 0 80 80" fill="none" xmlns="http://www.w3.org/2000/svg">
<path d="M34 63.2H12V28.8H64V33.2C64 33.5182 64.1264 33.8234 64.3515 34.0485C64.5765 34.2735 64.8817 34.4 65.2 34.4C65.5182 34.4 65.8235 34.2735 66.0485 34.0485C66.2736 33.8234 66.4 33.5182 66.4 33.2V16.4C66.4 16.0817 66.2736 15.7765 66.0485 15.5514C65.8235 15.3264 65.5182 15.2 65.2 15.2H10.8C10.4817 15.2 10.1765 15.3264 9.95145 15.5514C9.7264 15.7765 9.59998 16.0817 9.59998 16.4V64.4C9.59998 64.7182 9.7264 65.0234 9.95145 65.2485C10.1765 65.4735 10.4817 65.6 10.8 65.6H34C34.3182 65.6 34.6235 65.4735 34.8485 65.2485C35.0736 65.0234 35.2 64.7182 35.2 64.4C35.2 64.0817 35.0736 63.7765 34.8485 63.5514C34.6235 63.3264 34.3182 63.2 34 63.2ZM64 17.6V26.4H12V17.6H64Z" fill="url(#paint0_linear_11_360)"/>
<path d="M16.4 23.2H20.4C20.7183 23.2 21.0235 23.0736 21.2485 22.8486C21.4736 22.6235 21.6 22.3183 21.6 22C21.6 21.6818 21.4736 21.3766 21.2485 21.1515C21.0235 20.9265 20.7183 20.8 20.4 20.8H16.4C16.0818 20.8 15.7765 20.9265 15.5515 21.1515C15.3264 21.3766 15.2 21.6818 15.2 22C15.2 22.3183 15.3264 22.6235 15.5515 22.8486C15.7765 23.0736 16.0818 23.2 16.4 23.2Z" fill="url(#paint1_linear_11_360)"/>
<path d="M25.2 23.2H29.2C29.5183 23.2 29.8235 23.0736 30.0485 22.8486C30.2736 22.6235 30.4 22.3183 30.4 22C30.4 21.6818 30.2736 21.3766 30.0485 21.1515C29.8235 20.9265 29.5183 20.8 29.2 20.8H25.2C24.8817 20.8 24.5765 20.9265 24.3515 21.1515C24.1264 21.3766 24 21.6818 24 22C24 22.3183 24.1264 22.6235 24.3515 22.8486C24.5765 23.0736 24.8817 23.2 25.2 23.2Z" fill="url(#paint2_linear_11_360)"/>
<path d="M53.6 45.6C52.0177 45.6 50.471 46.0692 49.1554 46.9482C47.8398 47.8273 46.8144 49.0767 46.2089 50.5385C45.6034 52.0003 45.445 53.6088 45.7537 55.1607C46.0624 56.7125 46.8243 58.138 47.9431 59.2568C49.0619 60.3756 50.4874 61.1376 52.0392 61.4462C53.5911 61.7549 55.1996 61.5965 56.6614 60.991C58.1232 60.3855 59.3727 59.3601 60.2517 58.0445C61.1308 56.7289 61.6 55.1822 61.6 53.6C61.6 51.4782 60.7571 49.4434 59.2568 47.9431C57.7565 46.4428 55.7217 45.6 53.6 45.6ZM53.6 59.2C52.4924 59.2 51.4097 58.8715 50.4888 58.2562C49.5679 57.6409 48.8501 56.7663 48.4263 55.743C48.0024 54.7197 47.8915 53.5938 48.1076 52.5075C48.3237 51.4212 48.857 50.4233 49.6402 49.6402C50.4233 48.857 51.4212 48.3237 52.5075 48.1076C53.5938 47.8915 54.7197 48.0024 55.743 48.4262C56.7663 48.8501 57.6409 49.5679 58.2562 50.4888C58.8715 51.4097 59.2 52.4924 59.2 53.6C59.2 55.0852 58.61 56.5096 57.5598 57.5598C56.5096 58.61 55.0852 59.2 53.6 59.2Z" fill="url(#paint3_linear_11_360)"/>
<path d="M71.776 49.32L67.2 48.624C66.9663 47.9067 66.6775 47.2086 66.336 46.536L69.088 42.8C69.269 42.5655 69.3569 42.2724 69.3347 41.977C69.3125 41.6816 69.1819 41.4048 68.968 41.2L65.16 37.392C64.9551 37.178 64.6784 37.0474 64.383 37.0253C64.0876 37.0031 63.7945 37.091 63.56 37.272L59.84 40.016C59.171 39.6919 58.4783 39.4191 57.768 39.2L57.08 34.64C57.0414 34.3529 56.9002 34.0895 56.6826 33.8984C56.465 33.7072 56.1856 33.6013 55.896 33.6H50.504C50.2167 33.6007 49.9393 33.7044 49.722 33.8923C49.5048 34.0802 49.3621 34.3398 49.32 34.624L48.632 39.2C47.9091 39.4357 47.2056 39.7272 46.528 40.072L42.808 37.328C42.5735 37.147 42.2804 37.0591 41.985 37.0813C41.6896 37.1034 41.4128 37.234 41.208 37.448L37.4 41.256C37.186 41.4608 37.0554 41.7376 37.0332 42.033C37.0111 42.3284 37.099 42.6215 37.28 42.856L40.032 46.592C39.704 47.2475 39.4259 47.9267 39.2 48.624L34.608 49.32C34.3268 49.3656 34.0709 49.5097 33.8863 49.7266C33.7016 49.9435 33.6001 50.2191 33.6 50.504V55.896C33.6007 56.1832 33.7044 56.4607 33.8923 56.6779C34.0802 56.8952 34.3398 57.0378 34.624 57.08L39.24 57.776C39.4727 58.4795 39.7589 59.1641 40.096 59.824L37.32 63.584C37.139 63.8185 37.0511 64.1116 37.0732 64.407C37.0954 64.7024 37.226 64.9791 37.44 65.184L41.248 68.992C41.4528 69.2059 41.7296 69.3366 42.025 69.3587C42.3204 69.3809 42.6135 69.293 42.848 69.112L46.624 66.328C47.2793 66.6586 47.9585 66.9394 48.656 67.168L49.36 71.808C49.4076 72.0796 49.5474 72.3265 49.7558 72.5072C49.9641 72.6879 50.2283 72.7913 50.504 72.8H55.896C56.1832 72.7993 56.4607 72.6955 56.6779 72.5076C56.8952 72.3197 57.0378 72.0601 57.08 71.776L57.784 67.136C58.4814 66.9074 59.1607 66.6266 59.816 66.296L63.592 69.08C63.8265 69.261 64.1196 69.3489 64.415 69.3267C64.7104 69.3046 64.9871 69.1739 65.192 68.96L69 65.152C69.2139 64.9471 69.3445 64.6704 69.3667 64.375C69.3889 64.0796 69.301 63.7865 69.12 63.552L66.344 59.792C66.6796 59.1425 66.9657 58.4685 67.2 57.776L71.816 57.08C72.0928 57.0293 72.343 56.883 72.5229 56.6666C72.7027 56.4501 72.8008 56.1774 72.8 55.896V50.504C72.7992 50.2167 72.6955 49.9393 72.5076 49.722C72.3197 49.5048 72.0601 49.3621 71.776 49.32ZM70.4 54.864L66.056 55.52C65.8263 55.5552 65.6119 55.6564 65.4386 55.8112C65.2654 55.966 65.1408 56.1677 65.08 56.392C64.8012 57.4197 64.3898 58.4066 63.856 59.328C63.7391 59.53 63.6837 59.7617 63.6964 59.9947C63.7092 60.2277 63.7897 60.452 63.928 60.64L66.544 64.184L64.192 66.536L60.632 63.912C60.444 63.7737 60.2197 63.6932 59.9867 63.6804C59.7537 63.6677 59.522 63.7231 59.32 63.84C58.403 64.3674 57.4215 64.7734 56.4 65.048C56.1757 65.1088 55.974 65.2334 55.8192 65.4066C55.6644 65.5799 55.5632 65.7943 55.528 66.024L54.864 70.4H51.536L50.872 66.024C50.8367 65.7943 50.7355 65.5799 50.5807 65.4066C50.426 65.2334 50.2242 65.1088 50 65.048C48.9785 64.7733 47.9969 64.3673 47.08 63.84C46.878 63.7231 46.6463 63.6677 46.4132 63.6804C46.1802 63.6932 45.956 63.7737 45.768 63.912L42.208 66.536L39.856 64.184L42.48 60.64C42.6183 60.452 42.6987 60.2277 42.7115 59.9947C42.7243 59.7617 42.6689 59.53 42.552 59.328C42.0182 58.4066 41.6067 57.4197 41.328 56.392C41.2672 56.1677 41.1426 55.966 40.9693 55.8112C40.7961 55.6564 40.5816 55.5552 40.352 55.52L36 54.864V51.536L40.328 50.88C40.5601 50.8456 40.777 50.7438 40.9519 50.5874C41.1267 50.431 41.2519 50.2268 41.312 50C41.5876 48.9611 41.9992 47.9632 42.536 47.032C42.6529 46.83 42.7083 46.5983 42.6955 46.3652C42.6827 46.1322 42.6023 45.908 42.464 45.72L39.872 42.208L42.224 39.856L45.728 42.44C45.916 42.5783 46.1402 42.6587 46.3732 42.6715C46.6063 42.6843 46.838 42.6289 47.04 42.512C47.9754 41.9685 48.9788 41.5515 50.024 41.272C50.2508 41.2119 50.455 41.0867 50.6114 40.9119C50.7678 40.737 50.8696 40.5201 50.904 40.288L51.536 36H54.864L55.512 40.296C55.5464 40.5281 55.6481 40.745 55.8045 40.9199C55.9609 41.0947 56.1652 41.2199 56.392 41.28C57.4371 41.5595 58.4405 41.9765 59.376 42.52C59.5777 42.6379 59.8095 42.6939 60.0428 42.6811C60.276 42.6683 60.5004 42.5872 60.688 42.448L64.192 39.864L66.544 42.216L63.952 45.728C63.8137 45.916 63.7332 46.1402 63.7204 46.3732C63.7077 46.6063 63.7631 46.838 63.88 47.04C64.4168 47.9712 64.8283 48.9691 65.104 50.008C65.164 50.2348 65.2892 50.439 65.4641 50.5954C65.639 50.7518 65.8559 50.8536 66.088 50.888L70.416 51.544L70.4 54.864Z" fill="url(#paint4_linear_11_360)"/>
<defs>
<linearGradient id="paint0_linear_11_360" x1="9.59998" y1="40.4" x2="66.4" y2="40.4" gradientUnits="userSpaceOnUse">
<stop stop-color="#F093FB"/>
<stop offset="1" stop-color="#F5576C"/>
</linearGradient>
<linearGradient id="paint1_linear_11_360" x1="15.2" y1="22" x2="21.6" y2="22" gradientUnits="userSpaceOnUse">
<stop stop-color="#F093FB"/>
<stop offset="1" stop-color="#F5576C"/>
</linearGradient>
<linearGradient id="paint2_linear_11_360" x1="24" y1="22" x2="30.4" y2="22" gradientUnits="userSpaceOnUse">
<stop stop-color="#F093FB"/>
<stop offset="1" stop-color="#F5576C"/>
</linearGradient>
<linearGradient id="paint3_linear_11_360" x1="45.6" y1="53.6" x2="61.6" y2="53.6" gradientUnits="userSpaceOnUse">
<stop stop-color="#F093FB"/>
<stop offset="1" stop-color="#F5576C"/>
</linearGradient>
<linearGradient id="paint4_linear_11_360" x1="33.6" y1="53.2" x2="72.8" y2="53.2" gradientUnits="userSpaceOnUse">
<stop stop-color="#F093FB"/>
<stop offset="1" stop-color="#F5576C"/>
</linearGradient>
</defs>
</svg>
